<svg width="828" height="853" viewBox="0 0 828 853" fill="none" xmlns="http://www.w3.org/2000/svg">
<g clip-path="url(#clip0_16_253)">
<path d="M515.298 52.0733C486.393 74.7281 474.472 103.733 487.133 119.888L502.267 139.196C514.353 154.617 546.695 149.438 574.518 127.631C602.34 105.824 615.097 75.6563 603.006 60.2299L587.877 40.9273C575.216 24.7729 543.848 29.6961 515.298 52.0733ZM549.843 96.1486C539.434 104.307 528.617 109.958 519.553 112.456C524.094 104.228 531.736 95.0934 542.44 86.7039C553.144 78.3144 563.836 73.0708 572.918 70.6361C568.324 78.8367 560.252 87.9904 549.843 96.1486ZM577.211 57.6729C564.331 59.4772 549.264 66.1091 535.038 77.2592C520.812 88.4093 510.772 101.456 505.939 113.534C503.305 112.962 501.161 111.847 499.726 110.018C492.925 101.34 504.133 81.1523 525.168 64.6662C545.848 48.4578 568.48 42.116 575.284 50.7973C576.718 52.6272 577.288 54.9756 577.211 57.6729Z" fill="white" fill-opacity="0.22"/>
</g>
<g clip-path="url(#clip1_16_253)">
<path d="M731.882 150.824C712.393 139.707 693.234 139.662 687.021 150.554L679.595 163.573C673.664 173.97 684.062 191.067 702.822 201.768C721.581 212.469 741.59 212.717 747.523 202.316L754.947 189.301C761.16 178.409 751.132 161.805 731.882 150.824ZM714.93 180.541C707.912 176.538 702.217 171.725 698.711 167.175C704.414 167.843 711.345 170.056 718.563 174.173C725.78 178.29 731.215 183.127 734.689 187.701C728.99 186.997 721.948 184.545 714.93 180.541ZM743.013 187.136C739.018 180.267 731.787 173.277 722.195 167.805C712.603 162.334 702.905 159.668 694.957 159.724C694.673 158.102 694.808 156.632 695.512 155.398C698.849 149.547 712.856 151.225 727.038 159.314C740.982 167.268 749.795 178.605 746.457 184.458C745.753 185.692 744.556 186.557 743.013 187.136Z" fill="white" fill-opacity="0.22"/>
</g>
<g clip-path="url(#clip2_16_253)">
<path d="M442.087 446.56C426.222 430.695 407.754 425.597 398.887 434.464L388.289 445.062C379.825 453.526 385.344 472.761 400.615 488.032C415.887 503.303 435.121 508.822 443.589 500.355L454.183 489.76C463.05 480.893 457.758 462.231 442.087 446.56ZM417.895 470.752C412.182 465.039 407.959 458.894 405.778 453.58C411.102 455.729 417.204 459.693 423.079 465.568C428.955 471.443 432.921 477.543 435.065 482.872C429.754 480.688 423.609 476.465 417.895 470.752ZM443.243 484.522C441.202 476.843 436.072 468.193 428.263 460.384C420.455 452.576 411.804 447.446 404.123 445.402C404.277 443.763 404.795 442.381 405.799 441.376C410.562 436.613 423.63 441.927 435.175 453.472C446.526 464.823 452.036 478.083 447.271 482.848C446.267 483.853 444.885 484.371 443.243 484.522Z" fill="white" fill-opacity="0.22"/>
</g>
<g clip-path="url(#clip3_16_253)">
<path d="M638.457 420.524C602.332 428.434 578.835 449.531 583.256 469.721L588.54 493.854C592.76 513.126 624.362 522.571 659.135 514.957C693.908 507.343 718.671 485.556 714.449 466.276L709.167 442.151C704.746 421.961 674.14 412.71 638.457 420.524ZM650.519 475.61C637.51 478.458 625.227 478.854 615.913 477.157C623.63 471.679 634.557 466.735 647.935 463.806C661.313 460.876 673.304 460.795 682.607 462.558C674.853 467.988 663.529 472.761 650.519 475.61ZM692.169 452.677C679.697 448.681 663.13 448.108 645.35 452.002C627.57 455.895 612.758 463.339 603.092 472.182C600.953 470.511 599.496 468.562 598.995 466.275C596.62 455.43 615.615 442.019 641.904 436.263C667.75 430.603 691.052 434.747 693.428 445.597C693.929 447.884 693.419 450.264 692.169 452.677Z" fill="white" fill-opacity="0.22"/>
</g>
<g clip-path="url(#clip4_16_253)">
<path d="M385.457 171.524C349.332 179.434 325.835 200.531 330.256 220.721L335.54 244.854C339.76 264.126 371.362 273.571 406.135 265.957C440.908 258.343 465.671 236.556 461.449 217.276L456.167 193.151C451.746 172.961 421.14 163.71 385.457 171.524ZM397.519 226.61C384.51 229.458 372.227 229.854 362.913 228.157C370.63 222.679 381.557 217.735 394.935 214.806C408.313 211.876 420.304 211.795 429.607 213.558C421.853 218.988 410.529 223.761 397.519 226.61ZM439.169 203.677C426.697 199.681 410.13 199.108 392.35 203.002C374.57 206.895 359.758 214.339 350.092 223.182C347.953 221.511 346.496 219.562 345.995 217.275C343.62 206.43 362.615 193.019 388.904 187.263C414.75 181.603 438.052 185.747 440.428 196.597C440.929 198.884 440.419 201.264 439.169 203.677Z" fill="white" fill-opacity="0.22"/>
</g>
<g clip-path="url(#clip5_16_253)">
<path d="M470.097 658.512C439.554 665.2 419.594 682.602 423.205 699.095L427.522 718.808C430.969 734.552 457.589 742.091 486.988 735.654C516.387 729.216 537.421 711.242 533.972 695.492L529.657 675.785C526.046 659.292 500.265 651.906 470.097 658.512ZM479.95 703.511C468.952 705.919 458.58 706.317 450.728 704.984C457.275 700.455 466.528 696.345 477.839 693.868C489.149 691.392 499.272 691.254 507.115 692.641C500.537 697.13 490.949 701.103 479.95 703.511ZM515.246 684.499C504.741 681.304 490.759 680.934 475.727 684.226C460.695 687.517 448.147 693.696 439.935 700.989C438.14 699.635 436.921 698.049 436.512 696.181C434.572 687.322 450.686 676.235 472.912 671.369C494.764 666.584 514.41 669.836 516.351 678.699C516.76 680.567 516.315 682.517 515.246 684.499Z" fill="white" fill-opacity="0.22"/>
</g>
<g clip-path="url(#clip6_16_253)">
<path d="M681.192 746.044C653.851 730.721 627.399 730.308 619.245 744.856L609.5 762.244C601.717 776.13 616.741 799.336 643.058 814.086C669.375 828.835 697.01 829.538 704.796 815.646L714.538 798.264C722.691 783.716 708.198 761.18 681.192 746.044ZM658.947 785.735C649.101 780.217 641.052 773.633 636.033 767.444C643.933 768.449 653.589 771.555 663.714 777.23C673.839 782.904 681.531 789.515 686.507 795.737C678.61 794.683 668.793 791.253 658.947 785.735ZM697.976 795.128C692.193 785.81 681.937 776.266 668.481 768.725C655.024 761.183 641.531 757.416 630.56 757.345C630.104 755.156 630.233 753.18 631.157 751.532C635.537 743.718 654.94 746.233 674.837 757.384C694.398 768.348 707.008 783.77 702.627 791.588C701.703 793.236 700.085 794.378 697.976 795.128Z" fill="white" fill-opacity="0.22"/>
</g>
<g clip-path="url(#clip7_16_253)">
<path d="M706.617 47.6348C692.986 58.3183 687.365 71.9963 693.335 79.6143L700.472 88.7198C706.171 95.9917 721.423 93.5494 734.544 83.2659C747.664 72.9825 753.68 58.756 747.978 51.4813L740.843 42.3786C734.873 34.7606 720.081 37.0823 706.617 47.6348ZM722.907 68.4196C717.999 72.2668 712.898 74.9319 708.623 76.11C710.765 72.2297 714.369 67.922 719.417 63.9658C724.464 60.0095 729.507 57.5367 733.789 56.3886C731.623 60.2558 727.816 64.5724 722.907 68.4196ZM735.814 50.2755C729.74 51.1263 722.634 54.2538 715.926 59.5119C709.217 64.77 704.483 70.9223 702.203 76.6183C700.961 76.3485 699.95 75.8228 699.274 74.9599C696.067 70.8679 701.352 61.3478 711.271 53.5733C721.023 45.9298 731.696 42.9392 734.905 47.0331C735.581 47.896 735.85 49.0035 735.814 50.2755Z" fill="white" fill-opacity="0.22"/>
</g>
<g clip-path="url(#clip8_16_253)">
<path d="M808.753 94.2034C799.562 88.9609 790.528 88.94 787.598 94.0765L784.096 100.216C781.299 105.119 786.202 113.181 795.049 118.228C803.895 123.274 813.331 123.391 816.129 118.486L819.63 112.349C822.56 107.212 817.831 99.3817 808.753 94.2034ZM800.759 108.218C797.449 106.33 794.764 104.06 793.11 101.914C795.8 102.229 799.068 103.273 802.472 105.215C805.875 107.156 808.438 109.437 810.077 111.594C807.389 111.262 804.068 110.105 800.759 108.218ZM814.002 111.327C812.118 108.088 808.708 104.792 804.185 102.212C799.661 99.6313 795.088 98.3742 791.34 98.4004C791.206 97.6356 791.27 96.9423 791.602 96.3605C793.175 93.6014 799.781 94.3925 806.469 98.2075C813.044 101.958 817.2 107.304 815.626 110.065C815.294 110.646 814.73 111.054 814.002 111.327Z" fill="white" fill-opacity="0.22"/>
</g>
<g clip-path="url(#clip9_16_253)">
<path d="M672.093 233.665C664.611 226.183 655.902 223.78 651.721 227.961L646.723 232.959C642.732 236.95 645.334 246.021 652.536 253.222C659.737 260.424 668.808 263.026 672.801 259.033L677.797 254.037C681.978 249.856 679.483 241.055 672.093 233.665ZM660.684 245.073C657.99 242.379 655.999 239.481 654.97 236.976C657.481 237.989 660.358 239.858 663.129 242.629C665.9 245.399 667.77 248.276 668.781 250.789C666.277 249.759 663.379 247.768 660.684 245.073ZM672.638 251.567C671.675 247.946 669.256 243.866 665.574 240.184C661.891 236.502 657.812 234.083 654.19 233.119C654.262 232.346 654.507 231.694 654.98 231.22C657.226 228.974 663.389 231.48 668.833 236.925C674.186 242.277 676.784 248.531 674.537 250.778C674.064 251.251 673.412 251.496 672.638 251.567Z" fill="white" fill-opacity="0.22"/>
</g>
<g clip-path="url(#clip10_16_253)">
<path d="M764.696 221.387C747.66 225.117 736.58 235.066 738.665 244.588L741.157 255.968C743.147 265.056 758.049 269.51 774.447 265.919C790.845 262.329 802.523 252.055 800.532 242.963L798.041 231.586C795.956 222.065 781.523 217.703 764.696 221.387ZM770.384 247.364C764.25 248.708 758.457 248.894 754.065 248.094C757.704 245.511 762.857 243.179 769.166 241.798C775.474 240.416 781.129 240.378 785.516 241.21C781.86 243.77 776.519 246.021 770.384 247.364ZM790.025 236.55C784.144 234.665 776.331 234.395 767.947 236.231C759.562 238.067 752.577 241.578 748.019 245.748C747.01 244.96 746.323 244.041 746.087 242.962C744.967 237.848 753.924 231.524 766.321 228.809C778.51 226.14 789.499 228.095 790.619 233.211C790.855 234.29 790.615 235.412 790.025 236.55Z" fill="white" fill-opacity="0.22"/>
</g>
<g clip-path="url(#clip11_16_253)">
<path d="M645.388 103.965C628.352 107.695 617.271 117.644 619.356 127.165L621.848 138.545C623.838 147.634 638.741 152.088 655.139 148.497C671.537 144.907 683.214 134.632 681.224 125.54L678.732 114.164C676.648 104.643 662.215 100.28 645.388 103.965ZM651.076 129.942C644.941 131.286 639.148 131.472 634.756 130.672C638.395 128.089 643.548 125.757 649.857 124.376C656.166 122.994 661.821 122.956 666.208 123.787C662.551 126.348 657.211 128.599 651.076 129.942ZM670.717 119.127C664.835 117.243 657.023 116.973 648.638 118.809C640.253 120.645 633.268 124.156 628.71 128.326C627.702 127.538 627.014 126.619 626.778 125.54C625.658 120.426 634.616 114.102 647.013 111.387C659.201 108.718 670.19 110.672 671.31 115.789C671.547 116.868 671.306 117.99 670.717 119.127Z" fill="white" fill-opacity="0.22"/>
</g>
<g clip-path="url(#clip12_16_253)">
<path d="M685.301 333.616C670.898 336.77 661.485 344.976 663.189 352.754L665.224 362.05C666.85 369.475 679.403 373.03 693.267 369.994C707.131 366.959 717.05 358.483 715.424 351.055L713.389 341.762C711.685 333.984 699.528 330.501 685.301 333.616ZM689.948 354.837C684.761 355.972 679.871 356.16 676.167 355.531C679.255 353.396 683.619 351.457 688.952 350.29C694.286 349.122 699.06 349.057 702.758 349.711C699.656 351.827 695.135 353.701 689.948 354.837ZM706.592 345.871C701.639 344.364 695.045 344.19 687.957 345.742C680.868 347.294 674.951 350.208 671.078 353.647C670.231 353.009 669.656 352.261 669.464 351.38C668.549 347.202 676.148 341.974 686.629 339.679C696.934 337.423 706.198 338.956 707.114 343.136C707.306 344.017 707.097 344.936 706.592 345.871Z" fill="white" fill-opacity="0.22"/>
</g>
<g clip-path="url(#clip13_16_253)">
<path d="M784.849 374.894C771.955 367.668 759.481 367.474 755.636 374.334L751.041 382.534C747.37 389.082 754.455 400.025 766.865 406.981C779.276 413.937 792.308 414.268 795.98 407.717L800.574 399.52C804.419 392.66 797.584 382.032 784.849 374.894ZM774.358 393.612C769.715 391.009 765.919 387.905 763.553 384.986C767.278 385.46 771.832 386.925 776.606 389.601C781.381 392.277 785.009 395.394 787.355 398.328C783.631 397.831 779.001 396.214 774.358 393.612ZM792.764 398.041C790.036 393.647 785.2 389.146 778.854 385.59C772.509 382.033 766.146 380.257 760.972 380.223C760.757 379.191 760.818 378.259 761.253 377.482C763.319 373.797 772.469 374.984 781.852 380.242C791.076 385.412 797.023 392.685 794.957 396.372C794.521 397.149 793.758 397.687 792.764 398.041Z" fill="white" fill-opacity="0.22"/>
</g>
<g clip-path="url(#clip14_16_253)">
<path d="M247.281 125.742C260.666 112.357 276.246 108.057 283.727 115.537L292.668 124.478C299.809 131.619 295.153 147.846 282.269 160.73C269.386 173.614 253.158 178.27 246.015 171.126L237.076 162.188C229.596 154.707 234.06 138.963 247.281 125.742ZM267.691 146.152C272.511 141.332 276.073 136.147 277.914 131.665C273.422 133.478 268.274 136.822 263.317 141.778C258.361 146.735 255.014 151.881 253.205 156.377C257.686 154.534 262.871 150.972 267.691 146.152ZM246.306 157.769C248.028 151.291 252.356 143.992 258.944 137.405C265.531 130.817 272.83 126.489 279.31 124.765C279.18 123.382 278.743 122.216 277.896 121.369C273.877 117.35 262.853 121.833 253.112 131.573C243.536 141.15 238.888 152.337 242.908 156.357C243.755 157.204 244.921 157.641 246.306 157.769Z" fill="white" fill-opacity="0.22"/>
</g>
<g clip-path="url(#clip15_16_253)">
<path d="M81.6126 103.777C112.09 110.45 131.913 128.249 128.183 145.283L123.725 165.642C120.165 181.901 93.504 189.869 64.1676 183.446C34.8313 177.022 13.9399 158.641 17.5016 142.375L21.9582 122.023C25.688 104.989 51.5086 97.1849 81.6126 103.777ZM71.4364 150.25C82.4116 152.653 92.7745 152.988 100.632 151.556C94.1218 146.934 84.9034 142.763 73.617 140.292C62.3306 137.82 52.2138 137.752 44.3655 139.239C50.9069 143.82 60.4612 147.847 71.4364 150.25ZM36.2984 130.902C46.8203 127.532 60.7975 127.048 75.7976 130.333C90.7977 133.618 103.294 139.898 111.448 147.358C113.253 145.949 114.483 144.305 114.905 142.375C116.909 133.226 100.884 121.911 78.7051 117.055C56.8999 112.28 37.2407 115.776 35.2363 124.93C34.8138 126.86 35.2439 128.867 36.2984 130.902Z" fill="white" fill-opacity="0.22"/>
</g>
<g clip-path="url(#clip16_16_253)">
<path d="M223.651 304.556C249.418 310.199 266.258 324.88 263.211 338.794L259.569 355.426C256.661 368.708 234.203 375.068 209.4 369.637C184.598 364.206 166.853 349.043 169.762 335.755L173.403 319.129C176.45 305.215 198.199 298.983 223.651 304.556ZM215.338 342.52C224.617 344.552 233.367 344.887 239.992 343.763C234.468 339.942 226.662 336.475 217.119 334.385C207.577 332.296 199.037 332.179 192.421 333.35C197.97 337.136 206.059 340.488 215.338 342.52ZM185.561 326.48C194.423 323.785 206.219 323.473 218.901 326.25C231.583 329.027 242.169 334.24 249.097 340.393C250.612 339.25 251.64 337.912 251.985 336.336C253.622 328.862 240.027 319.509 221.276 315.403C202.841 311.366 186.266 314.11 184.629 321.587C184.284 323.163 184.659 324.808 185.561 326.48Z" fill="white" fill-opacity="0.22"/>
</g>
<g clip-path="url(#clip17_16_253)">
<path d="M45.5591 378.403C68.6253 365.475 90.9422 365.128 97.8207 377.401L106.042 392.07C112.608 403.785 99.934 423.363 77.7314 435.807C55.5288 448.25 32.2142 448.843 25.6457 437.123L17.4267 422.458C10.5482 410.185 22.7755 391.172 45.5591 378.403ZM64.3263 411.888C72.6326 407.233 79.4239 401.678 83.6576 396.457C76.9931 397.305 68.8466 399.926 60.3047 404.713C51.7628 409.5 45.2731 415.077 41.0756 420.327C47.7373 419.437 56.0199 416.544 64.3263 411.888ZM31.3993 419.813C36.2784 411.951 44.9307 403.9 56.2832 397.538C67.6357 391.175 79.0192 387.997 88.2749 387.937C88.6598 386.091 88.5506 384.423 87.7715 383.033C84.0767 376.44 67.7065 378.563 50.9211 387.97C34.4184 397.219 23.7795 410.231 27.4759 416.826C28.2551 418.216 29.6205 419.18 31.3993 419.813Z" fill="white" fill-opacity="0.22"/>
</g>
<defs>
<clipPath id="clip0_16_253">
<rect width="128" height="128" fill="white" transform="translate(455.056 78.9604) rotate(-38.0885)"/>
</clipPath>
<clipPath id="clip1_16_253">
<rect width="78.2003" height="78.2003" fill="white" transform="translate(702.762 122.959) rotate(29.7016)"/>
</clipPath>
<clipPath id="clip2_16_253">
<rect width="78.2003" height="78.2003" fill="white" transform="translate(421.352 412) rotate(45)"/>
</clipPath>
<clipPath id="clip3_16_253">
<rect width="128.894" height="128.894" fill="white" transform="translate(572.056 418.57) rotate(-12.351)"/>
</clipPath>
<clipPath id="clip4_16_253">
<rect width="128.894" height="128.894" fill="white" transform="translate(319.056 169.57) rotate(-12.351)"/>
</clipPath>
<clipPath id="clip5_16_253">
<rect width="108.974" height="105.293" fill="white" transform="translate(414.056 657.31) rotate(-12.351)"/>
</clipPath>
<clipPath id="clip6_16_253">
<rect width="109.239" height="103.999" fill="white" transform="translate(639.902 708) rotate(29.2688)"/>
</clipPath>
<clipPath id="clip7_16_253">
<rect width="60.3616" height="60.3616" fill="white" transform="translate(678.208 60.3142) rotate(-38.0885)"/>
</clipPath>
<clipPath id="clip8_16_253">
<rect width="36.8773" height="36.8773" fill="white" transform="translate(795.021 81.0632) rotate(29.7016)"/>
</clipPath>
<clipPath id="clip9_16_253">
<rect width="36.8773" height="36.8773" fill="white" transform="translate(662.314 217.367) rotate(45)"/>
</clipPath>
<clipPath id="clip10_16_253">
<rect width="60.7831" height="60.7831" fill="white" transform="translate(733.383 220.466) rotate(-12.351)"/>
</clipPath>
<clipPath id="clip11_16_253">
<rect width="60.7831" height="60.7831" fill="white" transform="translate(614.074 103.044) rotate(-12.351)"/>
</clipPath>
<clipPath id="clip12_16_253">
<rect width="51.3894" height="49.6534" fill="white" transform="translate(658.874 333.049) rotate(-12.351)"/>
</clipPath>
<clipPath id="clip13_16_253">
<rect width="51.5142" height="49.0434" fill="white" transform="translate(765.377 356.954) rotate(29.2688)"/>
</clipPath>
<clipPath id="clip14_16_253">
<rect width="65.974" height="65.974" fill="white" transform="matrix(-0.707107 0.707107 0.707107 0.707107 264.775 96.5854)"/>
</clipPath>
<clipPath id="clip15_16_253">
<rect width="108.742" height="108.742" fill="white" transform="matrix(-0.976855 -0.213901 -0.213901 0.976855 137.633 102.129)"/>
</clipPath>
<clipPath id="clip16_16_253">
<rect width="91.9363" height="88.8306" fill="white" transform="matrix(-0.976855 -0.213901 -0.213901 0.976855 270.93 303.542)"/>
</clipPath>
<clipPath id="clip17_16_253">
<rect width="92.1596" height="87.7392" fill="white" transform="matrix(-0.872335 0.488908 0.488908 0.872335 80.394 346.307)"/>
</clipPath>
</defs>
</svg>
