<svg width="693" height="581" viewBox="0 0 693 581" fill="none" xmlns="http://www.w3.org/2000/svg">
<path fill-rule="evenodd" clip-rule="evenodd" d="M220.153 81.6947C281.324 47.0772 344.064 -11.2625 409.574 2.45224C475.311 16.2145 479.638 104.329 528.311 146.208C576.384 187.572 671.246 182.674 689.276 243.115C707.127 302.958 644.446 362.766 610.118 420.452C578.535 473.526 554.895 536.772 497.931 564.662C442.08 592.008 381.735 561.072 321.163 561.93C253.303 562.89 180.533 598.166 122.227 569.979C58.9006 539.366 17.0457 476.419 4.22777 408.715C-8.65859 340.65 11.9955 266.328 52.9852 204.249C91.1837 146.397 158.426 116.627 220.153 81.6947Z" fill="white" fill-opacity="0.21"/>
</svg>
