<svg width="224" height="226" viewBox="0 0 224 226" fill="none" xmlns="http://www.w3.org/2000/svg">
<path d="M43.9856 131.576C44.3657 123.58 46.46 115.761 50.1239 108.658C53.7878 101.556 58.9341 95.3395 65.2073 90.4385C65.4446 85.0425 66.9328 79.7768 69.5523 75.0652C72.1718 70.3535 75.8494 66.3273 80.2892 63.3105C84.7291 60.2937 89.8073 58.3706 95.1153 57.6957C100.423 57.0208 105.813 57.6131 110.851 59.4249C119.345 52.65 129.842 48.9465 140.662 48.9073C151.482 48.8681 161.998 52.4954 170.528 59.2086C179.057 65.9218 185.107 75.3326 187.708 85.9343C190.309 96.5361 189.31 107.716 184.873 117.683C189.469 126.386 191.695 136.167 191.324 146.026C190.953 155.886 187.997 165.473 182.759 173.807C177.521 182.142 170.188 188.926 161.509 193.468C152.829 198.009 143.114 200.146 133.354 199.659L46.8898 195.512L75.7994 184.526C65.8767 179.904 57.5486 172.396 51.881 162.963C46.2134 153.53 43.4643 142.602 43.9856 131.576Z" fill="#FEDEA4"/>
<path d="M37.4505 121.154C37.8305 113.158 39.9248 105.339 43.5887 98.2363C47.2527 91.1339 52.3989 84.9175 58.6722 80.0165C58.9094 74.6205 60.3977 69.3548 63.0171 64.6432C65.6366 59.9315 69.3142 55.9053 73.7541 52.8885C78.194 49.8717 83.2722 47.9486 88.5802 47.2737C93.8882 46.5988 99.2779 47.1911 104.316 49.0029C112.81 42.228 123.307 38.5245 134.127 38.4853C144.946 38.4461 155.463 42.0734 163.993 48.7866C172.522 55.4998 178.572 64.9106 181.173 75.5124C183.773 86.1141 182.775 97.2936 178.338 107.261C182.934 115.964 185.16 125.745 184.789 135.604C184.417 145.464 181.462 155.051 176.224 163.385C170.986 171.72 163.653 178.504 154.974 183.046C146.294 187.587 136.579 189.724 126.819 189.237L40.3546 185.09L69.2643 174.104C59.3416 169.482 51.0134 161.974 45.3458 152.541C39.6783 143.108 36.9292 132.18 37.4505 121.154Z" stroke="#FEAF76" stroke-width="5" stroke-linecap="round" stroke-linejoin="round"/>
<path d="M56.6837 104.756L62.8777 128.897L71.3538 105.459L77.5478 129.601L86.0238 106.163M138.214 108.666L144.408 132.808L152.884 109.37L159.078 133.511L167.554 110.073" stroke="#FEAF76" stroke-width="5" stroke-linecap="round" stroke-linejoin="round"/>
<path d="M102.382 89.3113C100.541 89.223 99.1205 87.6441 99.2096 85.7849C99.2988 83.9256 100.864 82.4899 102.705 82.5782C104.547 82.6666 105.967 84.2454 105.878 86.1047C105.789 87.964 104.224 89.3996 102.382 89.3113Z" fill="#FEAF76"/>
<path d="M123.543 90.3262C121.701 90.2379 120.281 88.659 120.37 86.7997C120.459 84.9405 122.024 83.5048 123.866 83.5931C125.707 83.6815 127.127 85.2603 127.038 87.1196C126.949 88.9788 125.384 90.4145 123.543 90.3262Z" fill="#FEAF76"/>
<path d="M110.978 131.204C101.157 130.733 93.5812 122.313 94.0568 112.397C94.5324 102.481 102.879 94.8239 112.7 95.295C122.52 95.766 130.096 104.186 129.621 114.103C129.145 124.019 120.798 131.676 110.978 131.204Z" stroke="#FEAF76" stroke-width="5" stroke-linecap="round" stroke-linejoin="round"/>
</svg>
