<svg width="118" height="118" viewBox="0 0 118 118" fill="none" xmlns="http://www.w3.org/2000/svg">
<g clip-path="url(#clip0_16_196)">
<path d="M12.2668 38.9768L73.6359 27.1411C75.2635 26.8272 76.9492 27.1727 78.322 28.1016C79.6949 29.0306 80.6425 30.4668 80.9564 32.0944L92.7921 93.4635C93.106 95.0911 92.7605 96.7768 91.8315 98.1496C90.9026 99.5225 89.4663 100.47 87.8387 100.784L26.4696 112.62C24.842 112.934 23.1564 112.588 21.7835 111.659C20.4107 110.73 19.4631 109.294 19.1492 107.666L7.31348 46.2973C6.99958 44.6696 7.3451 42.984 8.27403 41.6111C9.20297 40.2383 10.6392 39.2907 12.2668 38.9768Z" fill="#FEDEA4"/>
<path d="M20.7778 27.6602L82.1469 15.8246C83.7745 15.5107 85.4602 15.8562 86.833 16.7851C88.2059 17.714 89.1535 19.1503 89.4674 20.7779L101.303 82.147C101.617 83.7746 101.271 85.4602 100.343 86.8331C99.4136 88.206 97.9773 89.1536 96.3497 89.4675L34.9806 101.303C33.353 101.617 31.6674 101.272 30.2945 100.343C28.9217 99.4137 27.9741 97.9774 27.6601 96.3498L15.8245 34.9807C15.5106 33.3531 15.8561 31.6675 16.785 30.2946C17.714 28.9218 19.1502 27.9741 20.7778 27.6602Z" stroke="#FEAF76" stroke-width="8.33333" stroke-linecap="round" stroke-linejoin="round"/>
<path d="M26.4766 90.2129L45.0334 65.4168L69.0405 79.8823L80.9928 64.8468L99.725 73.9645M70.4431 54.1511C67.7304 54.6743 64.921 54.0984 62.6329 52.5502C60.3448 51.002 58.7655 48.6082 58.2423 45.8955C57.7192 43.1828 58.295 40.3734 59.8432 38.0853C61.3915 35.7972 63.7852 34.2179 66.4979 33.6947C69.2106 33.1716 72.02 33.7474 74.3081 35.2956C76.5962 36.8439 78.1755 39.2376 78.6987 41.9503C79.2219 44.663 78.646 47.4724 77.0978 49.7605C75.5496 52.0486 73.1558 53.6279 70.4431 54.1511V54.1511Z" stroke="#FEAF76" stroke-width="8.33333" stroke-linecap="round" stroke-linejoin="round"/>
</g>
<defs>
<clipPath id="clip0_16_196">
<rect width="100" height="100" fill="white" transform="matrix(-0.981906 0.189371 0.189371 0.981906 98.1906 0)"/>
</clipPath>
</defs>
</svg>
