<svg width="124" height="124" viewBox="0 0 124 124" fill="none" xmlns="http://www.w3.org/2000/svg">
<g clip-path="url(#clip0_16_190)">
<path opacity="0.8" d="M54.4264 47.0298L58.0475 41.4364C59.4827 39.2171 61.5843 37.5099 64.0505 36.5598C66.5167 35.6098 69.2206 35.4659 71.7737 36.1488L85.77 39.8991C88.3236 40.5835 90.5945 42.0598 92.2562 44.116C93.918 46.1722 94.885 48.7023 95.0183 51.3427L95.3575 57.9972L101.457 59.6317C104.66 60.4897 107.39 62.5847 109.047 65.4557C110.705 68.3268 111.154 71.7387 110.296 74.941L102.532 103.919C101.674 107.121 99.5786 109.851 96.7075 111.509C93.8365 113.166 90.4246 113.616 87.2223 112.758L34.0964 98.5225C30.8941 97.6645 28.1639 95.5695 26.5063 92.6985C24.8487 89.8274 24.3995 86.4155 25.2576 83.2132L33.0221 54.2354C33.8802 51.0332 35.9751 48.303 38.8462 46.6454C41.7173 44.9878 45.1292 44.5386 48.3314 45.3966L54.4264 47.0298Z" fill="#FED99A"/>
<path fill-rule="evenodd" clip-rule="evenodd" d="M49.6823 34.0185L46.0612 39.6119L39.9662 37.9788C36.764 37.1207 33.352 37.5699 30.481 39.2275C27.6099 40.8851 25.5149 43.6154 24.6569 46.8176L16.8923 75.7954C16.0343 78.9976 16.4835 82.4096 18.1411 85.2806C19.7987 88.1517 22.5289 90.2466 25.7312 91.1047L78.8571 105.34C82.0593 106.198 85.4713 105.749 88.3423 104.091C91.2134 102.433 93.3083 99.7031 94.1664 96.5009L101.931 67.5231C102.789 64.3209 102.34 60.9089 100.682 58.0379C99.0246 55.1668 96.2944 53.0719 93.0921 52.2138L86.9923 50.5794L86.6579 43.9261C86.5245 41.2849 85.5569 38.754 83.8942 36.6975C82.2315 34.641 79.9595 33.1648 77.4047 32.4813L63.4181 28.7336C60.8639 28.0482 58.1581 28.1906 55.6899 29.1402C53.2218 30.0899 51.1184 31.7978 49.6823 34.0185ZM38.6721 42.8084L48.2831 45.3836L53.8767 36.7367C54.7378 35.4034 55.9998 34.3777 57.481 33.8072C58.9622 33.2367 60.5861 33.1508 62.1192 33.5619L76.1155 37.3122C77.6476 37.7235 79.0099 38.6101 80.0064 39.8444C81.0029 41.0787 81.5824 42.5972 81.6615 44.1817L82.1822 54.4669L91.798 57.0434C93.7194 57.5583 95.3575 58.8153 96.3521 60.5379C97.3466 62.2605 97.6161 64.3077 97.1013 66.229L89.3368 95.2068C88.8219 97.1281 87.5649 98.7663 85.8423 99.7608C84.1197 100.755 82.0725 101.025 80.1512 100.51L27.0252 86.2751C25.1039 85.7602 23.4658 84.5032 22.4712 82.7806C21.4766 81.058 21.2071 79.0108 21.7219 77.0895L29.4865 48.1117C30.0013 46.1903 31.2583 44.5522 32.981 43.5576C34.7036 42.5631 36.7508 42.2936 38.6721 42.8084Z" fill="#FEAF77"/>
<path fill-rule="evenodd" clip-rule="evenodd" d="M45.5699 65.3622C44.5402 69.2049 45.0792 73.2992 47.0684 76.7445C49.0575 80.1897 52.3338 82.7037 56.1765 83.7334C60.0192 84.763 64.1135 84.224 67.5588 82.2348C71.004 80.2457 73.518 76.9694 74.5476 73.1267C75.5773 69.2841 75.0383 65.1897 73.0491 61.7445C71.06 58.2992 67.7837 55.7852 63.941 54.7556C60.0983 53.7259 56.004 54.265 52.5588 56.2541C49.1135 58.2432 46.5995 61.5195 45.5699 65.3622ZM69.718 71.8327C69.0316 74.3944 67.3556 76.5786 65.0587 77.9047C62.7619 79.2308 60.0324 79.5902 57.4706 78.9037C54.9088 78.2173 52.7246 76.5413 51.3985 74.2445C50.0724 71.9476 49.7131 69.2181 50.3995 66.6563C51.0859 64.0945 52.7619 61.9103 55.0588 60.5842C57.3556 59.2581 60.0851 58.8988 62.6469 59.5852C65.2087 60.2716 67.3929 61.9476 68.719 64.2445C70.0451 66.5413 70.4044 69.2709 69.718 71.8327Z" fill="#FEAF77"/>
</g>
<defs>
<clipPath id="clip0_16_190">
<rect width="100" height="100" fill="white" transform="translate(26.6445 0.762695) rotate(15)"/>
</clipPath>
</defs>
</svg>
