<svg width="315" height="247" viewBox="0 0 315 247" fill="none" xmlns="http://www.w3.org/2000/svg">
<g clip-path="url(#clip0_14_42)">
<path d="M232.585 89.1018C185.844 89.1018 150.594 108.93 150.594 135.221V166.65C150.594 191.743 187.304 212.087 232.585 212.087C277.865 212.087 314.575 191.743 314.575 166.65V135.221C314.575 108.93 279.326 89.1018 232.585 89.1018ZM232.585 109.599C266.547 109.599 294.078 121.072 294.078 135.221C294.078 138.187 292.806 141.025 290.583 143.673C276.19 135.289 255.718 130.097 232.585 130.097C209.451 130.097 188.979 135.289 174.586 143.673C172.364 141.025 171.092 138.187 171.092 135.221C171.092 121.072 198.623 109.599 232.585 109.599ZM189.165 153.362C200.25 148.651 215.175 145.47 232.585 145.47C249.995 145.47 264.92 148.651 276.005 153.362C264.881 157.983 249.537 160.843 232.585 160.843C215.633 160.843 200.288 157.983 189.165 153.362Z" fill="black"/>
</g>
<g clip-path="url(#clip1_14_42)">
<path d="M80.0013 80.0014C42.6602 117.343 28.5256 159.529 47.1235 178.127L69.3554 200.359C87.106 218.11 130.824 203.173 166.999 166.999C203.173 130.824 218.11 87.106 200.359 69.3554L178.127 47.1235C159.529 28.5256 117.342 42.6602 80.0013 80.0014ZM94.5009 94.5009C121.633 67.3688 151.742 53.4898 161.752 63.499C163.85 65.5969 164.841 68.6199 164.939 72.2693C147.509 77.8367 127.482 90.5192 109 109C90.5192 127.482 77.8367 147.509 72.2692 164.939C68.6199 164.841 65.5968 163.85 63.4989 161.752C53.4897 151.742 67.3688 121.633 94.5009 94.5009ZM90.7696 160.145C96.2925 147.957 105.966 133.784 119.875 119.875C133.784 105.966 147.957 96.2925 160.145 90.7696C154.528 102.925 144.293 117.207 130.75 130.75C117.207 144.293 102.925 154.528 90.7696 160.145Z" fill="black"/>
</g>
<defs>
<clipPath id="clip0_14_42">
<rect width="163.981" height="163.981" fill="white" transform="translate(150.594 68.6042)"/>
</clipPath>
<clipPath id="clip1_14_42">
<rect width="185.267" height="164.044" fill="white" transform="translate(0 131.004) rotate(-45)"/>
</clipPath>
</defs>
</svg>
