<svg width="132" height="122" viewBox="0 0 132 122" fill="none" xmlns="http://www.w3.org/2000/svg">
<path d="M7 64.5557C7 85.2947 29.6442 102.103 57.5768 102.103C67.9202 102.103 77.5453 99.8006 85.5542 95.837C88.7147 94.2746 109.159 105.647 111.763 103.616C114.564 101.429 99.4801 85.7964 101.509 83.1649C105.729 77.68 108.145 71.3234 108.145 64.5474C108.154 43.8166 85.5094 27 57.5768 27C29.6442 27 7 43.8166 7 64.5557Z" fill="#85D194"/>
<path d="M13.4445 58.2957C13.4445 79.0347 36.0886 95.8431 64.0212 95.8431C74.3646 95.8431 83.9897 93.5406 91.9987 89.577C95.1592 88.0145 115.604 99.3873 118.207 97.3562C121.009 95.1688 105.925 79.5364 107.954 76.9049C112.174 71.42 114.589 65.0634 114.589 58.2874C114.598 37.5566 91.9538 20.74 64.0212 20.74C36.0886 20.74 13.4445 37.5566 13.4445 58.2957Z" stroke="#5BBE71" stroke-width="4.6875" stroke-miterlimit="10" stroke-linecap="round" stroke-linejoin="round"/>
</svg>
