<svg width="622" height="473" viewBox="0 0 622 473" fill="none" xmlns="http://www.w3.org/2000/svg">
<path fill-rule="evenodd" clip-rule="evenodd" d="M198.731 44.225C240.614 38.9012 274.083 -8.27883 315.187 1.36224C356.246 10.9928 363.807 70.3266 400.281 91.4992C463.822 128.384 562.859 105.955 602.229 167.987C638.402 224.982 620.379 315.804 573.419 364.298C525.04 414.258 438.917 382.391 373.037 404.668C329.402 419.423 301.304 476.404 255.471 471.811C209.201 467.174 192.875 404.676 151.993 382.517C106.593 357.91 33.3207 381.713 7.1307 337.207C-18.3165 293.963 36.2061 243.594 40.8426 193.633C45.7711 140.527 -3.74678 73.6374 34.9927 36.9787C75.4952 -1.34854 143.414 51.2566 198.731 44.225Z" fill="#85D194"/>
</svg>
