<svg width="505" height="388" viewBox="0 0 505 388" fill="none" xmlns="http://www.w3.org/2000/svg">
<path fill-rule="evenodd" clip-rule="evenodd" d="M291.91 8.94268C346.003 -0.522679 406.942 -8.09805 447.206 29.0631C492.63 70.9873 515.605 139.169 496.584 197.843C478.835 252.596 414.822 269.341 361.843 292.387C313.415 313.453 260.054 346.388 213.87 320.824C169.067 296.025 170.023 234.416 165.335 183.617C161.704 144.264 167.853 105.937 191.083 73.8804C215.717 39.8854 250.426 16.2017 291.91 8.94268Z" fill="#B3E5BE"/>
<path d="M1.728 229V211.12H4.848L11.544 220.216H10.056L16.608 211.12H19.728V229H16.44V214.84L17.712 215.152L10.92 224.2H10.536L3.912 215.152L4.992 214.84V229H1.728ZM21.6859 229L27.8539 211.12H32.0779L38.2459 229H34.6939L33.4219 225.16H26.5099L25.2139 229H21.6859ZM27.4459 222.28H32.4859L29.5099 213.376H30.4219L27.4459 222.28ZM40.2358 229V211.12H46.0678C47.9558 211.12 49.5958 211.504 50.9878 212.272C52.3958 213.024 53.4838 214.072 54.2518 215.416C55.0198 216.744 55.4038 218.288 55.4038 220.048C55.4038 221.792 55.0198 223.344 54.2518 224.704C53.4838 226.048 52.3958 227.104 50.9878 227.872C49.5958 228.624 47.9558 229 46.0678 229H40.2358ZM43.4998 226.12H46.1398C47.3558 226.12 48.4038 225.872 49.2838 225.376C50.1798 224.864 50.8758 224.16 51.3718 223.264C51.8678 222.352 52.1158 221.28 52.1158 220.048C52.1158 218.8 51.8678 217.728 51.3718 216.832C50.8758 215.936 50.1798 215.24 49.2838 214.744C48.4038 214.248 47.3558 214 46.1398 214H43.4998V226.12ZM58.0014 229V211.12H69.8814V214H61.2654V218.584H69.4014V221.464H61.2654V226.12H69.8814V229H58.0014ZM76.5405 229V211.12H88.4685V214H79.8045V218.944H87.3885V221.824H79.8045V229H76.5405ZM90.603 229V211.12H97.251C98.467 211.12 99.539 211.344 100.467 211.792C101.411 212.224 102.147 212.864 102.675 213.712C103.203 214.544 103.467 215.56 103.467 216.76C103.467 217.992 103.171 219.04 102.579 219.904C102.003 220.768 101.219 221.408 100.227 221.824L104.331 229H100.635L96.243 221.152L98.355 222.4H93.867V229H90.603ZM93.867 219.52H97.299C97.891 219.52 98.403 219.408 98.835 219.184C99.267 218.944 99.603 218.616 99.843 218.2C100.083 217.784 100.203 217.304 100.203 216.76C100.203 216.2 100.083 215.72 99.843 215.32C99.603 214.904 99.267 214.584 98.835 214.36C98.403 214.12 97.891 214 97.299 214H93.867V219.52ZM115.278 229.288C113.966 229.288 112.742 229.056 111.606 228.592C110.47 228.128 109.478 227.48 108.63 226.648C107.782 225.816 107.118 224.84 106.638 223.72C106.174 222.584 105.942 221.36 105.942 220.048C105.942 218.72 106.174 217.496 106.638 216.376C107.102 215.256 107.758 214.28 108.606 213.448C109.454 212.616 110.446 211.976 111.582 211.528C112.718 211.064 113.95 210.832 115.278 210.832C116.606 210.832 117.838 211.064 118.974 211.528C120.11 211.992 121.102 212.64 121.95 213.472C122.798 214.288 123.454 215.256 123.918 216.376C124.398 217.496 124.638 218.72 124.638 220.048C124.638 221.36 124.398 222.584 123.918 223.72C123.438 224.84 122.774 225.816 121.926 226.648C121.078 227.48 120.086 228.128 118.95 228.592C117.83 229.056 116.606 229.288 115.278 229.288ZM115.278 226.312C116.158 226.312 116.966 226.16 117.702 225.856C118.438 225.536 119.078 225.096 119.622 224.536C120.182 223.976 120.606 223.312 120.894 222.544C121.198 221.776 121.35 220.944 121.35 220.048C121.35 219.152 121.198 218.328 120.894 217.576C120.606 216.808 120.182 216.144 119.622 215.584C119.078 215.008 118.438 214.568 117.702 214.264C116.966 213.96 116.158 213.808 115.278 213.808C114.414 213.808 113.614 213.96 112.878 214.264C112.142 214.568 111.494 215.008 110.934 215.584C110.39 216.144 109.966 216.808 109.662 217.576C109.358 218.328 109.206 219.152 109.206 220.048C109.206 220.944 109.358 221.776 109.662 222.544C109.966 223.312 110.39 223.976 110.934 224.536C111.494 225.096 112.142 225.536 112.878 225.856C113.614 226.16 114.414 226.312 115.278 226.312ZM127.541 229V211.12H130.661L137.357 220.216H135.869L142.421 211.12H145.541V229H142.253V214.84L143.525 215.152L136.733 224.2H136.349L129.725 215.152L130.805 214.84V229H127.541ZM155.652 229V213.904H152.196V211.12H158.916V229H155.652ZM169.676 229.288C168.252 229.288 167.004 228.904 165.932 228.136C164.86 227.368 164.02 226.288 163.412 224.896C162.82 223.504 162.524 221.888 162.524 220.048C162.524 218.192 162.82 216.576 163.412 215.2C164.004 213.824 164.836 212.752 165.908 211.984C166.98 211.216 168.228 210.832 169.652 210.832C171.108 210.832 172.364 211.216 173.42 211.984C174.492 212.752 175.332 213.832 175.94 215.224C176.548 216.6 176.852 218.208 176.852 220.048C176.852 221.888 176.548 223.504 175.94 224.896C175.348 226.272 174.516 227.352 173.444 228.136C172.372 228.904 171.116 229.288 169.676 229.288ZM169.7 226.312C170.516 226.312 171.212 226.064 171.788 225.568C172.364 225.056 172.804 224.336 173.108 223.408C173.428 222.464 173.588 221.344 173.588 220.048C173.588 218.752 173.428 217.64 173.108 216.712C172.804 215.768 172.356 215.048 171.764 214.552C171.188 214.056 170.484 213.808 169.652 213.808C168.852 213.808 168.164 214.056 167.588 214.552C167.012 215.048 166.564 215.768 166.244 216.712C165.94 217.64 165.788 218.752 165.788 220.048C165.788 221.328 165.94 222.44 166.244 223.384C166.564 224.312 167.012 225.032 167.588 225.544C168.18 226.056 168.884 226.312 169.7 226.312ZM186.668 229.288C185.244 229.288 183.996 228.904 182.924 228.136C181.852 227.368 181.012 226.288 180.404 224.896C179.812 223.504 179.516 221.888 179.516 220.048C179.516 218.192 179.812 216.576 180.404 215.2C180.996 213.824 181.828 212.752 182.9 211.984C183.972 211.216 185.22 210.832 186.644 210.832C188.1 210.832 189.356 211.216 190.412 211.984C191.484 212.752 192.324 213.832 192.932 215.224C193.54 216.6 193.844 218.208 193.844 220.048C193.844 221.888 193.54 223.504 192.932 224.896C192.34 226.272 191.508 227.352 190.436 228.136C189.364 228.904 188.108 229.288 186.668 229.288ZM186.692 226.312C187.508 226.312 188.204 226.064 188.78 225.568C189.356 225.056 189.796 224.336 190.1 223.408C190.42 222.464 190.58 221.344 190.58 220.048C190.58 218.752 190.42 217.64 190.1 216.712C189.796 215.768 189.348 215.048 188.756 214.552C188.18 214.056 187.476 213.808 186.644 213.808C185.844 213.808 185.156 214.056 184.58 214.552C184.004 215.048 183.556 215.768 183.236 216.712C182.932 217.64 182.78 218.752 182.78 220.048C182.78 221.328 182.932 222.44 183.236 223.384C183.556 224.312 184.004 225.032 184.58 225.544C185.172 226.056 185.876 226.312 186.692 226.312ZM198.836 229L213.332 211.12H216.692L202.196 229H198.836ZM201.644 220.192C200.748 220.192 199.94 219.984 199.22 219.568C198.516 219.136 197.956 218.568 197.54 217.864C197.124 217.16 196.916 216.376 196.916 215.512C196.916 214.648 197.124 213.864 197.54 213.16C197.956 212.44 198.516 211.872 199.22 211.456C199.94 211.04 200.748 210.832 201.644 210.832C202.524 210.832 203.316 211.04 204.02 211.456C204.724 211.872 205.284 212.44 205.7 213.16C206.116 213.864 206.324 214.648 206.324 215.512C206.324 216.376 206.116 217.16 205.7 217.864C205.284 218.568 204.724 219.136 204.02 219.568C203.316 219.984 202.524 220.192 201.644 220.192ZM201.62 217.768C202.1 217.768 202.5 217.664 202.82 217.456C203.14 217.232 203.38 216.952 203.54 216.616C203.716 216.264 203.804 215.896 203.804 215.512C203.804 215.112 203.716 214.744 203.54 214.408C203.38 214.072 203.14 213.792 202.82 213.568C202.5 213.344 202.1 213.232 201.62 213.232C201.172 213.232 200.78 213.344 200.444 213.568C200.124 213.792 199.876 214.08 199.7 214.432C199.524 214.768 199.436 215.128 199.436 215.512C199.436 215.88 199.524 216.24 199.7 216.592C199.876 216.944 200.124 217.232 200.444 217.456C200.78 217.664 201.172 217.768 201.62 217.768ZM213.812 229.288C212.932 229.288 212.132 229.08 211.412 228.664C210.708 228.232 210.148 227.664 209.732 226.96C209.316 226.256 209.108 225.472 209.108 224.608C209.108 223.744 209.316 222.96 209.732 222.256C210.148 221.536 210.708 220.968 211.412 220.552C212.132 220.136 212.932 219.928 213.812 219.928C214.708 219.928 215.508 220.136 216.212 220.552C216.916 220.968 217.476 221.536 217.892 222.256C218.308 222.96 218.516 223.744 218.516 224.608C218.516 225.472 218.308 226.256 217.892 226.96C217.476 227.664 216.916 228.232 216.212 228.664C215.508 229.08 214.708 229.288 213.812 229.288ZM213.812 226.864C214.276 226.864 214.668 226.76 214.988 226.552C215.324 226.328 215.572 226.048 215.732 225.712C215.908 225.36 215.996 224.992 215.996 224.608C215.996 224.208 215.908 223.84 215.732 223.504C215.572 223.168 215.324 222.888 214.988 222.664C214.668 222.44 214.276 222.328 213.812 222.328C213.364 222.328 212.972 222.44 212.636 222.664C212.316 222.888 212.068 223.176 211.892 223.528C211.716 223.864 211.628 224.224 211.628 224.608C211.628 224.976 211.716 225.336 211.892 225.688C212.068 226.04 212.316 226.328 212.636 226.552C212.972 226.76 213.364 226.864 213.812 226.864ZM226.259 229V211.12H232.907C234.123 211.12 235.195 211.344 236.123 211.792C237.067 212.224 237.803 212.864 238.331 213.712C238.859 214.544 239.123 215.56 239.123 216.76C239.123 217.992 238.827 219.04 238.235 219.904C237.659 220.768 236.875 221.408 235.883 221.824L239.987 229H236.291L231.899 221.152L234.011 222.4H229.523V229H226.259ZM229.523 219.52H232.955C233.547 219.52 234.059 219.408 234.491 219.184C234.923 218.944 235.259 218.616 235.499 218.2C235.739 217.784 235.859 217.304 235.859 216.76C235.859 216.2 235.739 215.72 235.499 215.32C235.259 214.904 234.923 214.584 234.491 214.36C234.059 214.12 233.547 214 232.955 214H229.523V219.52ZM242.126 229V211.12H254.006V214H245.39V218.584H253.526V221.464H245.39V226.12H254.006V229H242.126ZM264.8 229.288C263.52 229.288 262.336 229.056 261.248 228.592C260.176 228.128 259.232 227.48 258.416 226.648C257.616 225.816 256.992 224.84 256.544 223.72C256.096 222.6 255.872 221.376 255.872 220.048C255.872 218.72 256.088 217.496 256.52 216.376C256.968 215.24 257.592 214.264 258.392 213.448C259.208 212.616 260.16 211.976 261.248 211.528C262.336 211.064 263.52 210.832 264.8 210.832C266.08 210.832 267.224 211.048 268.232 211.48C269.256 211.912 270.12 212.488 270.824 213.208C271.528 213.912 272.032 214.688 272.336 215.536L269.408 216.904C269.072 216.008 268.504 215.272 267.704 214.696C266.904 214.104 265.936 213.808 264.8 213.808C263.68 213.808 262.688 214.072 261.824 214.6C260.976 215.128 260.312 215.856 259.832 216.784C259.368 217.712 259.136 218.8 259.136 220.048C259.136 221.296 259.368 222.392 259.832 223.336C260.312 224.264 260.976 224.992 261.824 225.52C262.688 226.048 263.68 226.312 264.8 226.312C265.936 226.312 266.904 226.024 267.704 225.448C268.504 224.856 269.072 224.112 269.408 223.216L272.336 224.584C272.032 225.432 271.528 226.216 270.824 226.936C270.12 227.64 269.256 228.208 268.232 228.64C267.224 229.072 266.08 229.288 264.8 229.288ZM279.311 229V221.08L273.287 211.12H277.007L281.615 218.896H280.295L284.879 211.12H288.599L282.599 221.056V229H279.311ZM298.269 229.288C296.989 229.288 295.805 229.056 294.717 228.592C293.645 228.128 292.701 227.48 291.885 226.648C291.085 225.816 290.461 224.84 290.013 223.72C289.565 222.6 289.341 221.376 289.341 220.048C289.341 218.72 289.557 217.496 289.989 216.376C290.437 215.24 291.061 214.264 291.861 213.448C292.677 212.616 293.629 211.976 294.717 211.528C295.805 211.064 296.989 210.832 298.269 210.832C299.549 210.832 300.693 211.048 301.701 211.48C302.725 211.912 303.589 212.488 304.293 213.208C304.997 213.912 305.501 214.688 305.805 215.536L302.877 216.904C302.541 216.008 301.973 215.272 301.173 214.696C300.373 214.104 299.405 213.808 298.269 213.808C297.149 213.808 296.157 214.072 295.293 214.6C294.445 215.128 293.781 215.856 293.301 216.784C292.837 217.712 292.605 218.8 292.605 220.048C292.605 221.296 292.837 222.392 293.301 223.336C293.781 224.264 294.445 224.992 295.293 225.52C296.157 226.048 297.149 226.312 298.269 226.312C299.405 226.312 300.373 226.024 301.173 225.448C301.973 224.856 302.541 224.112 302.877 223.216L305.805 224.584C305.501 225.432 304.997 226.216 304.293 226.936C303.589 227.64 302.725 228.208 301.701 228.64C300.693 229.072 299.549 229.288 298.269 229.288ZM308.455 229V211.12H311.719V226.12H319.375V229H308.455ZM321.486 229V211.12H333.366V214H324.75V218.584H332.886V221.464H324.75V226.12H333.366V229H321.486ZM335.759 229V211.12H341.591C343.479 211.12 345.119 211.504 346.511 212.272C347.919 213.024 349.007 214.072 349.775 215.416C350.543 216.744 350.927 218.288 350.927 220.048C350.927 221.792 350.543 223.344 349.775 224.704C349.007 226.048 347.919 227.104 346.511 227.872C345.119 228.624 343.479 229 341.591 229H335.759ZM339.023 226.12H341.663C342.879 226.12 343.927 225.872 344.807 225.376C345.703 224.864 346.399 224.16 346.895 223.264C347.391 222.352 347.639 221.28 347.639 220.048C347.639 218.8 347.391 217.728 346.895 216.832C346.399 215.936 345.703 215.24 344.807 214.744C343.927 214.248 342.879 214 341.663 214H339.023V226.12ZM8.112 259.288C6.976 259.288 5.92 259.08 4.944 258.664C3.984 258.248 3.152 257.672 2.448 256.936C1.76 256.184 1.256 255.312 0.936 254.32L3.648 253.144C4.08 254.168 4.704 254.976 5.52 255.568C6.336 256.144 7.256 256.432 8.28 256.432C8.856 256.432 9.352 256.344 9.768 256.168C10.2 255.976 10.528 255.72 10.752 255.4C10.992 255.08 11.112 254.696 11.112 254.248C11.112 253.72 10.952 253.288 10.632 252.952C10.328 252.6 9.864 252.328 9.24 252.136L5.808 251.032C4.416 250.6 3.368 249.952 2.664 249.088C1.96 248.224 1.608 247.208 1.608 246.04C1.608 245.016 1.856 244.112 2.352 243.328C2.864 242.544 3.568 241.936 4.464 241.504C5.376 241.056 6.416 240.832 7.584 240.832C8.656 240.832 9.64 241.024 10.536 241.408C11.432 241.776 12.2 242.296 12.84 242.968C13.496 243.624 13.984 244.4 14.304 245.296L11.616 246.496C11.264 245.6 10.736 244.912 10.032 244.432C9.328 243.936 8.512 243.688 7.584 243.688C7.04 243.688 6.56 243.784 6.144 243.976C5.728 244.152 5.4 244.408 5.16 244.744C4.936 245.064 4.824 245.448 4.824 245.896C4.824 246.392 4.984 246.832 5.304 247.216C5.624 247.584 6.112 247.872 6.768 248.08L10.056 249.112C11.48 249.576 12.544 250.216 13.248 251.032C13.968 251.848 14.328 252.856 14.328 254.056C14.328 255.08 14.064 255.984 13.536 256.768C13.008 257.552 12.28 258.168 11.352 258.616C10.424 259.064 9.344 259.288 8.112 259.288ZM20.4351 259V244H15.8031V241.12H28.2831V244H23.7231V259H20.4351ZM30.2749 259V241.12H33.5389V259H30.2749ZM36.978 259V241.12H43.626C44.842 241.12 45.914 241.344 46.842 241.792C47.786 242.224 48.522 242.864 49.05 243.712C49.578 244.544 49.842 245.56 49.842 246.76C49.842 247.992 49.546 249.04 48.954 249.904C48.378 250.768 47.594 251.408 46.602 251.824L50.706 259H47.01L42.618 251.152L44.73 252.4H40.242V259H36.978ZM40.242 249.52H43.674C44.266 249.52 44.778 249.408 45.21 249.184C45.642 248.944 45.978 248.616 46.218 248.2C46.458 247.784 46.578 247.304 46.578 246.76C46.578 246.2 46.458 245.72 46.218 245.32C45.978 244.904 45.642 244.584 45.21 244.36C44.778 244.12 44.266 244 43.674 244H40.242V249.52ZM52.8452 259V241.12H56.1092V256.12H63.7652V259H52.8452ZM65.8764 259V241.12H69.1404V259H65.8764ZM72.5796 259V241.12H75.1236L84.9636 254.368L83.6436 254.632V241.12H86.9076V259H84.3396L74.6436 245.656L75.8436 245.392V259H72.5796ZM98.8406 259.288C97.5606 259.288 96.3766 259.056 95.2886 258.592C94.2006 258.128 93.2486 257.48 92.4326 256.648C91.6166 255.816 90.9766 254.84 90.5126 253.72C90.0646 252.6 89.8406 251.376 89.8406 250.048C89.8406 248.72 90.0566 247.496 90.4886 246.376C90.9366 245.24 91.5606 244.264 92.3606 243.448C93.1766 242.616 94.1286 241.976 95.2166 241.528C96.3046 241.064 97.4886 240.832 98.7686 240.832C100.049 240.832 101.193 241.048 102.201 241.48C103.225 241.912 104.089 242.488 104.793 243.208C105.497 243.912 106.001 244.688 106.305 245.536L103.401 246.928C103.065 246 102.497 245.248 101.697 244.672C100.897 244.096 99.9206 243.808 98.7686 243.808C97.6486 243.808 96.6566 244.072 95.7926 244.6C94.9446 245.128 94.2806 245.856 93.8006 246.784C93.3366 247.712 93.1046 248.8 93.1046 250.048C93.1046 251.296 93.3446 252.392 93.8246 253.336C94.3206 254.264 95.0006 254.992 95.8646 255.52C96.7286 256.048 97.7206 256.312 98.8406 256.312C99.7526 256.312 100.593 256.136 101.361 255.784C102.129 255.416 102.745 254.904 103.209 254.248C103.673 253.576 103.905 252.784 103.905 251.872V250.504L105.393 251.8H98.7686V249.04H107.169V250.84C107.169 252.216 106.937 253.432 106.473 254.488C106.009 255.544 105.377 256.432 104.577 257.152C103.793 257.856 102.905 258.392 101.913 258.76C100.921 259.112 99.8966 259.288 98.8406 259.288ZM120.401 259.288C119.265 259.288 118.209 259.08 117.233 258.664C116.273 258.248 115.441 257.672 114.737 256.936C114.049 256.184 113.545 255.312 113.225 254.32L115.937 253.144C116.369 254.168 116.993 254.976 117.809 255.568C118.625 256.144 119.545 256.432 120.569 256.432C121.145 256.432 121.641 256.344 122.057 256.168C122.489 255.976 122.817 255.72 123.041 255.4C123.281 255.08 123.401 254.696 123.401 254.248C123.401 253.72 123.241 253.288 122.921 252.952C122.617 252.6 122.153 252.328 121.529 252.136L118.097 251.032C116.705 250.6 115.657 249.952 114.953 249.088C114.249 248.224 113.897 247.208 113.897 246.04C113.897 245.016 114.145 244.112 114.641 243.328C115.153 242.544 115.857 241.936 116.753 241.504C117.665 241.056 118.705 240.832 119.873 240.832C120.945 240.832 121.929 241.024 122.825 241.408C123.721 241.776 124.489 242.296 125.129 242.968C125.785 243.624 126.273 244.4 126.593 245.296L123.905 246.496C123.553 245.6 123.025 244.912 122.321 244.432C121.617 243.936 120.801 243.688 119.873 243.688C119.329 243.688 118.849 243.784 118.433 243.976C118.017 244.152 117.689 244.408 117.449 244.744C117.225 245.064 117.113 245.448 117.113 245.896C117.113 246.392 117.273 246.832 117.593 247.216C117.913 247.584 118.401 247.872 119.057 248.08L122.345 249.112C123.769 249.576 124.833 250.216 125.537 251.032C126.257 251.848 126.617 252.856 126.617 254.056C126.617 255.08 126.353 255.984 125.825 256.768C125.297 257.552 124.569 258.168 123.641 258.616C122.713 259.064 121.633 259.288 120.401 259.288ZM129.556 259V241.12H132.82V259H129.556ZM136.259 259V241.12H139.523V256.12H147.179V259H136.259ZM152.379 259L146.139 241.12H149.691L154.587 255.928H153.891L158.787 241.12H162.339L156.123 259H152.379ZM164.337 259V241.12H176.217V244H167.601V248.584H175.737V251.464H167.601V256.12H176.217V259H164.337ZM178.611 259V241.12H185.259C186.475 241.12 187.547 241.344 188.475 241.792C189.419 242.224 190.155 242.864 190.683 243.712C191.211 244.544 191.475 245.56 191.475 246.76C191.475 247.992 191.179 249.04 190.587 249.904C190.011 250.768 189.227 251.408 188.235 251.824L192.339 259H188.643L184.251 251.152L186.363 252.4H181.875V259H178.611ZM181.875 249.52H185.307C185.899 249.52 186.411 249.408 186.843 249.184C187.275 248.944 187.611 248.616 187.851 248.2C188.091 247.784 188.211 247.304 188.211 246.76C188.211 246.2 188.091 245.72 187.851 245.32C187.611 244.904 187.275 244.584 186.843 244.36C186.411 244.12 185.899 244 185.307 244H181.875V249.52ZM195.822 253.576L195.606 241.12H198.798L198.582 253.576H195.822ZM195.606 259V255.64H198.798V259H195.606Z" fill="black"/>
<path d="M225.732 274.999C225.179 274.043 223.955 273.716 222.999 274.269C222.043 274.821 221.716 276.045 222.269 277.001L225.732 274.999ZM383 292.361L381 292.361L383 292.361ZM318.5 292.361L316.5 292.361L318.5 292.361ZM469.86 292.361L467.903 291.95L469.86 292.361ZM436.322 192.473C435.269 192.137 434.144 192.718 433.808 193.77L428.328 210.915C427.992 211.967 428.572 213.093 429.624 213.429C430.676 213.765 431.802 213.185 432.138 212.133L437.009 196.892L452.249 201.763C453.302 202.1 454.427 201.519 454.763 200.467C455.1 199.415 454.519 198.289 453.467 197.953L436.322 192.473ZM222.269 277.001C224.79 281.363 229.277 285.626 234.993 289.647C240.738 293.689 247.863 297.581 255.83 301.153C271.763 308.299 291.22 314.238 310.093 317.542C328.924 320.839 347.387 321.55 361.246 318.06C368.188 316.312 374.125 313.472 378.345 309.228C382.613 304.935 385 299.328 385 292.361L381 292.361C381 298.322 378.996 302.9 375.508 306.407C371.973 309.963 366.789 312.539 360.269 314.181C347.206 317.471 329.389 316.86 310.782 313.602C292.218 310.352 273.081 304.506 257.467 297.504C249.66 294.002 242.774 290.23 237.294 286.376C231.786 282.501 227.835 278.637 225.732 274.999L222.269 277.001ZM385 292.361C385 282.371 380.657 274.821 374.138 269.828C367.675 264.879 359.158 262.495 350.742 262.528C342.326 262.56 333.815 265.01 327.36 269.971C320.85 274.973 316.5 282.488 316.5 292.361L320.5 292.361C320.5 283.804 324.213 277.434 329.797 273.142C335.435 268.81 343.049 266.558 350.758 266.528C358.467 266.498 366.075 268.691 371.706 273.004C377.281 277.273 381 283.671 381 292.361L385 292.361ZM316.5 292.361C316.5 304.917 326.095 314.689 339.582 321.381C353.156 328.117 371.251 332.064 389.625 332.775C408 333.487 426.857 330.97 441.95 324.598C457.042 318.227 468.648 307.862 471.817 292.772L467.903 291.95C465.102 305.285 454.802 314.831 440.394 320.913C425.988 326.995 407.751 329.474 389.78 328.778C371.806 328.082 354.3 324.219 341.36 317.798C328.332 311.334 320.5 302.601 320.5 292.361L316.5 292.361ZM471.817 292.772C478.1 262.863 471.713 242.247 462.526 226.892C457.96 219.261 452.723 212.962 448.129 207.54C443.467 202.036 439.623 197.598 437.49 193.462L433.935 195.295C436.329 199.938 440.559 204.792 445.077 210.125C449.663 215.539 454.711 221.621 459.093 228.946C467.803 243.503 473.963 263.099 467.903 291.95L471.817 292.772Z" fill="black"/>
</svg>
