<svg width="241" height="241" viewBox="0 0 241 241" fill="none" xmlns="http://www.w3.org/2000/svg">
<g filter="url(#filter0_d_14_153)">
<path d="M93.1093 115.372C94.8436 122.848 86.6053 128.706 80.0653 124.609L71.2849 119.146L52.8932 148.413C48.0767 156.076 53.6173 166.018 62.7034 166.018H74.2731C80.647 166.018 85.8285 171.165 85.8285 177.505C85.8285 183.845 80.647 189.025 74.2731 189.025H62.7395C35.5097 189.025 18.9102 159.25 33.3019 136.261L51.6683 106.997L42.8663 101.498C36.3226 97.4004 37.992 87.4803 45.5149 85.7551L78.5513 78.1532C81.6551 77.4883 84.7987 79.3573 85.5213 82.4843L93.1093 115.372ZM130.29 56.3757L145.195 80.148L136.433 85.5681C129.871 89.6332 131.529 99.5641 139.062 101.3L172.088 108.902C175.203 109.619 178.314 107.685 179.029 104.585L186.632 71.7231C188.362 64.2435 180.146 58.4065 173.598 62.4644L164.796 67.9276L149.91 44.22C136.332 22.6042 104.672 22.5899 91.0858 44.1977L88.412 48.4468C85.0516 53.7843 86.7137 60.9117 92.0614 64.2615C97.4525 67.6253 104.625 66.0176 108 60.6529L110.689 56.3793C115.295 49.0507 125.882 49.3202 130.29 56.3757ZM207.687 136.29L201.548 126.492C198.175 121.108 191.048 119.462 185.635 122.822C180.237 126.172 178.582 133.3 181.957 138.666L188.096 148.424C192.919 156.087 187.379 166.036 178.289 166.036H143.605L143.613 155.706C143.613 148.022 134.273 144.172 128.81 149.607L104.814 173.483C102.566 175.72 102.566 179.381 104.816 181.617L128.815 205.461C134.278 210.889 143.612 207.038 143.612 199.358L143.603 189.05H178.24C205.483 189.054 222.104 159.257 207.687 136.29Z" fill="#B4E6BE"/>
</g>
<defs>
<filter id="filter0_d_14_153" x="28" y="28" width="189" height="184" filterUnits="userSpaceOnUse" color-interpolation-filters="sRGB">
<feFlood flood-opacity="0" result="BackgroundImageFix"/>
<feColorMatrix in="SourceAlpha" type="matrix" values="0 0 0 0 0 0 0 0 0 0 0 0 0 0 0 0 0 0 127 0" result="hardAlpha"/>
<feOffset dx="4" dy="4"/>
<feComposite in2="hardAlpha" operator="out"/>
<feColorMatrix type="matrix" values="0 0 0 0 0.357378 0 0 0 0 0.745833 0 0 0 0 0.442839 0 0 0 1 0"/>
<feBlend mode="normal" in2="BackgroundImageFix" result="effect1_dropShadow_14_153"/>
<feBlend mode="normal" in="SourceGraphic" in2="effect1_dropShadow_14_153" result="shape"/>
</filter>
</defs>
</svg>
